<svg t="1762178485615" class="icon" viewBox="0 0 1024 1024" version="1.1" xmlns="http://www.w3.org/2000/svg" width="32" height="32">
  <path d="M512 1024C228.693333 1024 0 795.306667 0 512S228.693333 0 512 0s512 228.693333 512 512-228.693333 512-512 512z m205.937778-750.933333h-48.924445c-4.551111 0-7.964444 1.137778-11.377777 4.551111s-4.551111 6.826667-4.551112 11.377778 1.137778 7.964444 4.551112 11.377777 6.826667 4.551111 11.377777 4.551111h48.924445v46.648889c0 4.551111 1.137778 7.964444 4.551111 11.377778 3.413333 3.413333 6.826667 4.551111 11.377778 4.551111s7.964444-1.137778 11.377777-4.551111c3.413333-3.413333 4.551111-6.826667 4.551112-11.377778v-46.648889c1.137778-18.204444-13.653333-31.857778-31.857778-31.857777z m17.066666 250.311111c-4.551111 0-7.964444 1.137778-11.377777 4.551111-3.413333 3.413333-4.551111 6.826667-4.551111 11.377778v46.648889h-48.924445c-4.551111 0-7.964444 1.137778-11.377778 4.551111-1.137778 1.137778-1.137778 2.275556-2.275555 3.413333-18.204444-17.066667-38.684444-30.72-61.44-39.822222 46.648889-26.168889 75.093333-77.368889 67.128889-135.395556-9.102222-54.613333-53.475556-100.124444-109.226667-111.502222-10.24-2.275556-20.48-3.413333-29.582222-3.413333-77.368889 0-138.808889 60.302222-138.808889 134.257777 0 48.924444 27.306667 91.022222 68.266667 114.915556-22.755556 9.102222-43.235556 22.755556-61.44 39.822222-1.137778-1.137778-1.137778-2.275556-2.275556-3.413333-3.413333-3.413333-6.826667-4.551111-11.377778-4.551111h-48.924444v-46.648889c0-4.551111-1.137778-7.964444-4.551111-11.377778-3.413333-3.413333-6.826667-4.551111-11.377778-4.551111s-7.964444 1.137778-11.377778 4.551111c-3.413333 3.413333-4.551111 6.826667-4.551111 11.377778v46.648889c0 17.066667 14.791111 30.72 32.995556 30.72h39.822222c-27.306667 34.133333-45.511111 76.231111-52.337778 124.017778-2.275556 17.066667 12.515556 32.995556 30.72 32.995555h352.711111c18.204444 0 32.995556-15.928889 30.72-32.995555-5.688889-47.786667-25.031111-89.884444-52.337778-124.017778h39.822223c18.204444 0 32.995556-13.653333 32.995555-30.72v-46.648889c0-4.551111-1.137778-7.964444-4.551111-11.377778-4.551111-2.275556-9.102222-3.413333-12.515556-3.413333zM349.297778 742.968889c10.24-73.955556 54.613333-135.395556 116.053333-160.426667 11.377778-4.551111 19.342222-14.791111 19.342222-26.168889 1.137778-11.377778-5.688889-22.755556-15.928889-29.582222-32.995556-19.342222-52.337778-51.2-52.337777-87.608889 0-56.888889 47.786667-102.4 106.951111-102.4 7.964444 0 15.928889 1.137778 23.893333 2.275556 42.097778 7.964444 75.093333 43.235556 81.92 84.195555 6.826667 42.097778-12.515556 81.92-51.2 103.537778-10.24 5.688889-17.066667 17.066667-15.928889 29.582222 1.137778 11.377778 7.964444 21.617778 19.342222 26.168889 61.44 25.031111 105.813333 86.471111 116.053334 160.426667H349.297778z m-37.546667-376.604445c4.551111 0 7.964444-1.137778 11.377778-4.551111 3.413333-3.413333 4.551111-6.826667 4.551111-11.377777v-46.648889h48.924444c4.551111 0 7.964444-1.137778 11.377778-4.551111s4.551111-6.826667 4.551111-11.377778-1.137778-7.964444-4.551111-11.377778-6.826667-4.551111-11.377778-4.551111h-48.924444c-18.204444 0-32.995556 13.653333-32.995556 30.72v46.648889c0 4.551111 1.137778 7.964444 4.551112 11.377778s9.102222 5.688889 12.515555 5.688888z" fill="#607EF8"/>
</svg>

